<?xml version="1.0" encoding="UTF-8"?>
<svg id="Layer_1" data-name="Layer 1" xmlns="http://www.w3.org/2000/svg" viewBox="0 0 535.62 312.85">
  <defs>
    <style>
      .cls-1 {
        fill: #333;
      }

      .cls-2 {
        fill: #ed1c24;
      }

      .cls-3 {
        fill: none;
      }
    </style>
  </defs>
  <polygon class="cls-3" points="448.57 292.5 468.17 292.5 458.37 270.05 448.57 292.5"/>
  <path class="cls-3" d="M358.06,276.68c0-4.22-2.79-8.44-9.04-8.44h-15.15v16.88h15.15c6.33,0,9.04-4.22,9.04-8.44Z"/>
  <path class="cls-3" d="M524.16,274.49c0-2.41-1.96-6.48-8.29-6.48h-15.22v12.13h15.22c6.26,0,8.29-2.64,8.29-5.65Z"/>
  <path class="cls-3" d="M250.74,268.39h-14.92v18.69h14.92c12.74,0,12.66-18.69,0-18.69Z"/>
  <path class="cls-3" d="M515.87,288.89h-15.22v13.57h15.22c4.07,0,9.87-1.36,9.87-6.33s-5.8-7.23-9.87-7.23Z"/>
  <polygon class="cls-2" points="286.22 111.34 271.68 136.51 286.22 161.68 297.34 180.95 311.87 206.12 314.49 210.65 329.02 235.82 358.09 235.82 343.55 210.65 326.4 180.95 357.75 126.66 343.21 101.49 311.87 155.78 300.75 136.51 332.09 82.22 346.62 57.05 332.09 31.88 317.56 57.05 286.22 111.34"/>
  <polygon class="cls-1" points="306.54 210.65 293.36 187.83 282.24 168.57 267.71 143.4 263.83 136.68 267.81 129.8 282.34 104.63 313.68 50.34 328.22 25.17 313.68 0 267.81 79.46 253.28 104.63 249.3 111.51 234.77 136.68 177.53 235.82 206.59 235.82 221.13 210.65 249.3 161.85 253.18 168.57 267.71 193.74 277.48 210.65 278.83 213 292.01 235.82 294.72 235.82 321.07 235.82 307.89 213 306.54 210.65"/>
  <path class="cls-1" d="M0,268.01h16.73v43.71h9.95v-43.71h16.73v-9.04H0v9.04Z"/>
  <polygon class="cls-1" points="85.39 281.28 59.46 281.28 59.46 259.04 49.51 259.04 49.51 311.8 59.46 311.8 59.46 290.47 85.39 290.47 85.39 311.8 95.26 311.8 95.26 259.04 85.39 259.04 85.39 281.28"/>
  <path class="cls-1" d="M141.01,289.26c0,9.04-4.67,14.54-12.89,14.54s-13.64-5.05-13.64-14.54v-30.22h-9.87v30.22c0,15.9,10.78,23.59,23.44,23.59s22.83-7.99,22.83-23.59v-30.22h-9.87v30.22Z"/>
  <polygon class="cls-1" points="188.64 281.73 172.13 259.04 160.68 259.04 160.68 311.8 170.63 311.8 170.63 273.44 187.43 296.42 189.39 296.42 206.57 273.51 206.57 311.8 216.52 311.8 216.52 259.04 205.14 259.04 188.64 281.73"/>
  <path class="cls-1" d="M250.74,258.89c-8.29,0-16.58.08-24.87.08v52.75h9.95v-15.52h14.92c25.85,0,25.77-37.3,0-37.3ZM250.74,287.08h-14.92v-18.69h14.92c12.66,0,12.74,18.69,0,18.69Z"/>
  <path class="cls-1" d="M276.67,311.72h39.49v-9.8h-29.62v-11.91h28.56v-9.27h-28.56v-12.13h29.62v-9.65h-39.49v52.75Z"/>
  <path class="cls-1" d="M368,276.45c0-9.12-6.56-17.41-18.99-17.48-8.36,0-16.73-.08-25.09-.08v52.83h9.95v-17.63h9.57l15.37,17.63h11.83v-.68l-15.98-18.01c10.02-2.04,13.34-9.34,13.34-16.58ZM333.87,285.12v-16.88h15.15c6.26,0,9.04,4.22,9.04,8.44s-2.71,8.44-9.04,8.44h-15.15Z"/>
  <polygon class="cls-2" points="389.94 311.72 399.89 311.72 399.89 292.2 426.34 292.2 426.34 283.01 399.89 283.01 399.89 268.61 427.84 268.61 427.84 259.04 389.94 259.04 389.94 311.72"/>
  <path class="cls-2" d="M452.94,258.97l-23.66,52.75h10.78l4.52-9.95h27.58l4.45,9.95h10.85l-23.66-52.75h-10.85ZM448.57,292.5l9.8-22.46,9.8,22.46h-19.59Z"/>
  <path class="cls-2" d="M527.18,284.44c4.9-2.19,6.86-6.1,6.86-10.17,0-10.63-7.76-15.3-18.16-15.3h-25.02v52.75h25.02c10.93,0,19.74-3.77,19.74-15.52,0-3.32-2.26-9.87-8.44-11.76ZM500.65,268.01h15.22c6.33,0,8.29,4.07,8.29,6.48,0,3.01-2.03,5.65-8.29,5.65h-15.22v-12.13ZM515.87,302.45h-15.22v-13.57h15.22c4.07,0,9.87,2.49,9.87,7.23s-5.8,6.33-9.87,6.33Z"/>
</svg>