<?xml version="1.0" encoding="UTF-8"?>
<svg id="Layer_1" data-name="Layer 1" xmlns="http://www.w3.org/2000/svg" viewBox="0 0 139.45 182.13">
  <defs>
    <style>
      .cls-1 {
        fill: #ed1c24;
      }
    </style>
  </defs>
  <polygon class="cls-1" points="83.94 85.99 72.72 105.43 83.94 124.87 92.53 139.75 103.75 159.19 105.78 162.69 117 182.13 139.45 182.13 128.22 162.69 114.98 139.75 139.18 97.82 127.96 78.38 103.75 120.31 95.16 105.43 119.37 63.5 130.59 44.06 119.37 24.62 108.15 44.06 83.94 85.99"/>
  <polygon points="99.64 162.69 89.46 145.07 80.87 130.19 69.65 110.75 66.65 105.56 69.72 100.25 80.95 80.81 105.15 38.88 116.38 19.44 105.15 0 69.72 61.37 58.5 80.81 55.43 86.12 44.21 105.56 0 182.13 22.45 182.13 33.67 162.69 55.43 125 58.42 130.19 69.65 149.63 77.19 162.69 78.24 164.51 88.41 182.13 90.51 182.13 110.86 182.13 100.68 164.51 99.64 162.69"/>
</svg>