<?xml version="1.0" encoding="UTF-8"?>
<svg id="Layer_1" data-name="Layer 1" xmlns="http://www.w3.org/2000/svg" viewBox="0 0 1074.44 217.28">
  <defs>
    <style>
      .cls-1 {
        fill: #ed1c24;
      }

      .cls-2 {
        fill: none;
      }
    </style>
  </defs>
  <g>
    <path d="M196.17,193.38h-5.1l-5.26-30.69-4.76,30.69h-5.1l6.22-35.06h7.34l6.66,35.06ZM191.74,181.17v4.09h-11.48v-4.09h11.48Z"/>
    <path d="M204.34,193.38h-5.04v-37.46h5.04v37.46Z"/>
    <path d="M209.21,166.05h5.04v21.62c0,.63.11,1.06.34,1.29.22.22.67.34,1.34.34h1.96c.63,0,1.1-.14,1.4-.42.3-.28.45-.79.45-1.54v-1.79h.22v4.03c0,1.34-.34,2.31-1.01,2.91-.67.6-1.57.9-2.69.9h-2.02c-1.72,0-2.99-.42-3.81-1.26-.82-.84-1.23-2.06-1.23-3.67v-22.4ZM219.74,166.05h5.04v27.33h-5.04v-27.33Z"/>
    <path d="M234.75,193.38h-5.04v-27.33h5.04v27.33ZM245.28,193.38h-5.04v-21.62c0-.67-.11-1.11-.34-1.32-.22-.21-.67-.31-1.34-.31h-1.96c-.64,0-1.1.15-1.4.45-.3.3-.45.8-.45,1.51v1.79h-.22v-4.03c0-1.34.34-2.31,1.01-2.91.67-.6,1.57-.9,2.69-.9h2.02c1.72,0,2.99.42,3.81,1.26.82.84,1.23,2.08,1.23,3.72v22.34ZM255.81,193.38h-5.1v-21.62c0-.67-.1-1.11-.31-1.32-.21-.21-.64-.31-1.32-.31h-2.02c-.6,0-1.05.15-1.34.45-.3.3-.45.8-.45,1.51v1.79h-.45l-.11-3.98c-.04-1.34.33-2.32,1.09-2.94.76-.62,1.74-.92,2.94-.92h1.96c1.75,0,3.04.42,3.86,1.26.82.84,1.23,2.08,1.23,3.72v22.34Z"/>
    <path d="M260.34,160.84v-4.98h5.26v4.98h-5.26ZM265.49,193.38h-5.04v-27.33h5.04v27.33Z"/>
    <path d="M275.46,193.38h-5.04v-27.33h5.04v27.33ZM285.99,193.38h-5.04v-21.62c0-.67-.11-1.11-.34-1.32-.22-.21-.67-.31-1.34-.31h-1.96c-.64,0-1.1.15-1.4.45-.3.3-.45.8-.45,1.51v1.79h-.22v-4.03c0-1.34.34-2.31,1.01-2.91.67-.6,1.57-.9,2.69-.9h2.02c1.72,0,2.99.42,3.81,1.26.82.84,1.23,2.08,1.23,3.72v22.34Z"/>
    <path d="M290.8,166.05h5.04v21.62c0,.63.11,1.06.34,1.29.22.22.67.34,1.34.34h1.96c.63,0,1.1-.14,1.4-.42.3-.28.45-.79.45-1.54v-1.79h.22v4.03c0,1.34-.34,2.31-1.01,2.91-.67.6-1.57.9-2.69.9h-2.02c-1.72,0-2.99-.42-3.81-1.26-.82-.84-1.23-2.06-1.23-3.67v-22.4ZM301.33,166.05h5.04v27.33h-5.04v-27.33Z"/>
    <path d="M316.34,193.38h-5.04v-27.33h5.04v27.33ZM326.87,193.38h-5.04v-21.62c0-.67-.11-1.11-.34-1.32-.22-.21-.67-.31-1.34-.31h-1.96c-.64,0-1.1.15-1.4.45-.3.3-.45.8-.45,1.51v1.79h-.22v-4.03c0-1.34.34-2.31,1.01-2.91.67-.6,1.57-.9,2.69-.9h2.02c1.72,0,2.99.42,3.81,1.26.82.84,1.23,2.08,1.23,3.72v22.34ZM337.4,193.38h-5.1v-21.62c0-.67-.1-1.11-.31-1.32-.21-.21-.64-.31-1.32-.31h-2.02c-.6,0-1.05.15-1.34.45-.3.3-.45.8-.45,1.51v1.79h-.45l-.11-3.98c-.04-1.34.33-2.32,1.09-2.94.76-.62,1.74-.92,2.94-.92h1.96c1.75,0,3.04.42,3.86,1.26.82.84,1.23,2.08,1.23,3.72v22.34Z"/>
    <path d="M368.59,193.38h-5.1l-5.26-30.69-4.76,30.69h-5.1l6.22-35.06h7.34l6.66,35.06ZM364.16,181.17v4.09h-11.48v-4.09h11.48Z"/>
    <path d="M371.67,166.05h5.04v21.62c0,.63.11,1.06.34,1.29.22.22.67.34,1.34.34h1.96c.63,0,1.1-.14,1.4-.42.3-.28.45-.79.45-1.54v-1.79h.22v4.03c0,1.34-.34,2.31-1.01,2.91-.67.6-1.57.9-2.69.9h-2.02c-1.72,0-2.99-.42-3.81-1.26-.82-.84-1.23-2.06-1.23-3.67v-22.4ZM382.19,166.05h5.04v27.33h-5.04v-27.33Z"/>
    <path d="M396.87,180.61h-5.04v-9.63c0-1.64.41-2.88,1.23-3.72.82-.84,2.09-1.26,3.81-1.26h2.02c1.12,0,2.02.3,2.69.9.67.6,1.01,1.57,1.01,2.91v4.03h-.22v-1.79c0-.71-.15-1.21-.45-1.51-.3-.3-.77-.45-1.4-.45h-1.96c-.67,0-1.12.1-1.34.31-.22.21-.34.64-.34,1.32v8.9ZM391.83,178.76h5.04v8.9c0,.63.11,1.06.34,1.29.22.22.67.34,1.34.34h1.96c.63,0,1.1-.14,1.4-.42.3-.28.45-.79.45-1.54v-1.29h.22v3.53c0,1.34-.34,2.31-1.01,2.91-.67.6-1.57.9-2.69.9h-2.02c-1.72,0-2.99-.42-3.81-1.26-.82-.84-1.23-2.06-1.23-3.67v-9.69ZM402.35,155.92h5.04v37.46h-5.04v-37.46Z"/>
    <path d="M412.21,160.84v-4.98h5.26v4.98h-5.26ZM417.36,193.38h-5.04v-27.33h5.04v27.33Z"/>
    <path d="M426.99,171.71v12.77h-4.98v-13.44c0-1.64.41-2.88,1.23-3.72.82-.84,2.13-1.26,3.92-1.26h3.19v3.98h-1.68c-.67,0-1.12.1-1.34.31-.22.21-.34.66-.34,1.37ZM426.99,181.73v5.99c0,.67.11,1.12.34,1.34.22.22.67.34,1.34.34h1.51v3.98h-3.02c-1.79,0-3.1-.42-3.92-1.26-.82-.84-1.23-2.06-1.23-3.67v-6.72h4.98ZM433.38,187.72v-5.66h4.98v6.38c0,1.61-.41,2.83-1.23,3.67-.82.84-2.15,1.26-3.98,1.26h-3.42v-3.98h1.96c.71,0,1.17-.11,1.37-.34.2-.22.31-.67.31-1.34ZM433.38,184.42v-12.71c0-.71-.1-1.17-.31-1.37-.21-.21-.66-.31-1.37-.31h-1.68v-3.98h3.14c1.83,0,3.15.42,3.98,1.26.82.84,1.23,2.08,1.23,3.72v13.38h-4.98Z"/>
    <path d="M451.58,158.32h5.04v35.06h-5.04v-35.06ZM463.22,173.55v-9.52c0-.67-.1-1.11-.31-1.32-.21-.21-.66-.31-1.37-.31h-9.3v-4.09h10.81c1.83,0,3.16.42,4,1.26s1.26,2.06,1.26,3.67v10.98c0,1.64-.42,2.88-1.26,3.72s-2.18,1.26-4,1.26h-9.02v-4.03h7.5c.71,0,1.17-.11,1.37-.34.2-.22.31-.65.31-1.29ZM458.63,177.2h5.15l6.33,16.18h-5.49l-5.99-16.18Z"/>
    <path d="M478.01,171.71v12.77h-4.98v-13.44c0-1.64.41-2.88,1.23-3.72.82-.84,2.13-1.26,3.92-1.26h3.19v3.98h-1.68c-.67,0-1.12.1-1.34.31-.22.21-.34.66-.34,1.37ZM478.01,181.73v5.99c0,.67.11,1.12.34,1.34.22.22.67.34,1.34.34h1.51v3.98h-3.02c-1.79,0-3.1-.42-3.92-1.26-.82-.84-1.23-2.06-1.23-3.67v-6.72h4.98ZM484.39,187.72v-5.66h4.98v6.38c0,1.61-.41,2.83-1.23,3.67-.82.84-2.15,1.26-3.98,1.26h-3.42v-3.98h1.96c.71,0,1.17-.11,1.37-.34.2-.22.31-.67.31-1.34ZM484.39,184.42v-12.71c0-.71-.1-1.17-.31-1.37-.21-.21-.66-.31-1.37-.31h-1.68v-3.98h3.14c1.83,0,3.15.42,3.98,1.26.82.84,1.23,2.08,1.23,3.72v13.38h-4.98Z"/>
    <path d="M498.73,171.71v12.77h-4.98v-13.44c0-1.64.41-2.88,1.23-3.72.82-.84,2.13-1.26,3.92-1.26h3.19v3.98h-1.68c-.67,0-1.12.1-1.34.31-.22.21-.34.66-.34,1.37ZM498.73,181.73v5.99c0,.67.11,1.12.34,1.34.22.22.67.34,1.34.34h1.51v3.98h-3.02c-1.79,0-3.1-.42-3.92-1.26-.82-.84-1.23-2.06-1.23-3.67v-6.72h4.98ZM505.11,187.72v-5.66h4.98v6.38c0,1.61-.41,2.83-1.23,3.67-.82.84-2.15,1.26-3.98,1.26h-3.42v-3.98h1.96c.71,0,1.17-.11,1.37-.34.2-.22.31-.67.31-1.34ZM505.11,184.42v-12.71c0-.71-.1-1.17-.31-1.37-.21-.21-.66-.31-1.37-.31h-1.68v-3.98h3.14c1.83,0,3.15.42,3.98,1.26.82.84,1.23,2.08,1.23,3.72v13.38h-4.98Z"/>
    <path d="M524.43,166.05v4.09h-11.82v-4.09h11.82ZM520.4,161.8v31.58h-5.04v-32.54c0-1.6.42-2.83,1.26-3.67.84-.84,2.16-1.26,3.95-1.26h3.86v4.26h-2.35c-.67,0-1.12.1-1.34.31-.22.21-.34.64-.34,1.32Z"/>
    <path d="M536.3,187.89v-4.54c0-.67-.1-1.11-.31-1.32-.21-.21-.66-.31-1.37-.31h-2.86c-1.83,0-3.16-.42-3.98-1.26-.82-.84-1.23-2.06-1.23-3.67v-5.77c0-1.64.42-2.88,1.26-3.72.84-.84,2.16-1.26,3.95-1.26h4.09c1.83,0,3.16.42,4,1.26.84.84,1.26,2.08,1.26,3.72v2.63h-4.93v-2.13c0-.67-.1-1.11-.31-1.32-.21-.2-.66-.31-1.37-.31h-1.34c-.67,0-1.12.1-1.34.31-.22.21-.34.64-.34,1.32v4.7c0,.67.11,1.11.34,1.32.22.21.67.31,1.34.31h2.91c1.79,0,3.1.42,3.92,1.26.82.84,1.23,2.08,1.23,3.72v5.6c0,1.61-.42,2.83-1.26,3.67-.84.84-2.16,1.26-3.95,1.26h-4.14c-1.79,0-3.11-.42-3.95-1.26-.84-.84-1.26-2.06-1.26-3.67v-2.69h4.98v2.13c0,.64.11,1.06.34,1.29.22.22.65.34,1.29.34h1.34c.71,0,1.17-.11,1.37-.34.2-.22.31-.65.31-1.29Z"/>
    <path d="M586.59,158.32h5.04v35.06h-5.04v-35.06ZM598.23,173.55v-9.52c0-.67-.1-1.11-.31-1.32-.21-.21-.66-.31-1.37-.31h-9.3v-4.09h10.81c1.83,0,3.16.42,4,1.26s1.26,2.06,1.26,3.67v10.98c0,1.64-.42,2.88-1.26,3.72s-2.18,1.26-4,1.26h-9.02v-4.03h7.5c.71,0,1.17-.11,1.37-.34.2-.22.31-.65.31-1.29ZM593.64,177.2h5.15l6.33,16.18h-5.49l-5.99-16.18Z"/>
    <path d="M613.02,171.71v12.77h-4.98v-13.44c0-1.64.41-2.88,1.23-3.72.82-.84,2.13-1.26,3.92-1.26h3.19v3.98h-1.68c-.67,0-1.12.1-1.34.31-.22.21-.34.66-.34,1.37ZM613.02,181.73v5.99c0,.67.11,1.12.34,1.34.22.22.67.34,1.34.34h1.51v3.98h-3.02c-1.79,0-3.1-.42-3.92-1.26-.82-.84-1.23-2.06-1.23-3.67v-6.72h4.98ZM619.4,187.72v-5.66h4.98v6.38c0,1.61-.41,2.83-1.23,3.67-.82.84-2.15,1.26-3.98,1.26h-3.42v-3.98h1.96c.71,0,1.17-.11,1.37-.34.21-.22.31-.67.31-1.34ZM619.4,184.42v-12.71c0-.71-.1-1.17-.31-1.37-.21-.21-.66-.31-1.37-.31h-1.68v-3.98h3.13c1.83,0,3.15.42,3.98,1.26.82.84,1.23,2.08,1.23,3.72v13.38h-4.98Z"/>
    <path d="M634.07,193.38h-5.04v-37.46h5.04v37.46Z"/>
    <path d="M644.04,193.38h-5.04v-37.46h5.04v37.46Z"/>
    <path d="M662.35,163.92v23.91c0,.63.11,1.06.34,1.29s.67.34,1.34.34h1.57v3.98h-3.14c-1.79,0-3.11-.42-3.95-1.26-.84-.84-1.26-2.08-1.26-3.72v-25.2c0-1.6.42-2.83,1.26-3.67.84-.84,2.16-1.26,3.95-1.26h3.47v3.98h-1.9c-.67,0-1.12.1-1.34.31-.22.21-.34.64-.34,1.32ZM668.51,169.3v-5.38c0-.67-.1-1.11-.31-1.32-.21-.2-.64-.31-1.32-.31h-1.85v-3.98h3.36c1.83,0,3.16.42,4,1.26s1.26,2.06,1.26,3.67v6.05h-5.15ZM668.51,187.84v-5.32h5.15v5.94c0,1.64-.42,2.88-1.26,3.72s-2.18,1.26-4,1.26h-3.36v-3.98h1.85c.67,0,1.11-.11,1.32-.34.21-.22.31-.65.31-1.29Z"/>
    <path d="M682.9,180.67h-5.04v-9.63c0-1.64.41-2.88,1.23-3.72.82-.84,2.09-1.26,3.81-1.26h2.02c1.12,0,2.02.3,2.69.9.67.6,1.01,1.57,1.01,2.91v3.75h-.22v-1.51c0-.71-.15-1.21-.45-1.51s-.77-.45-1.4-.45h-1.96c-.67,0-1.12.1-1.34.31s-.34.64-.34,1.32v8.9ZM677.86,178.76h5.04v8.9c0,.63.11,1.06.34,1.29.22.22.67.34,1.34.34h1.96c.63,0,1.1-.14,1.4-.42s.45-.79.45-1.54v-1.46h.22v3.7c0,1.34-.34,2.31-1.01,2.91-.67.6-1.57.9-2.69.9h-2.02c-1.72,0-2.99-.42-3.81-1.26-.82-.84-1.23-2.06-1.23-3.67v-9.69ZM693.43,193.38h-5.04v-27.33h5.04v27.33Z"/>
    <path d="M703.06,180.67h-5.04v-9.63c0-1.64.41-2.88,1.23-3.72.82-.84,2.09-1.26,3.81-1.26h2.02c1.12,0,2.02.3,2.69.9.67.6,1.01,1.57,1.01,2.91v4.03h-.22v-1.79c0-.71-.15-1.21-.45-1.51s-.77-.45-1.4-.45h-1.96c-.67,0-1.12.1-1.34.31s-.34.64-.34,1.32v8.9ZM698.02,178.76h5.04v8.57c0,.63.11,1.06.34,1.29.22.22.67.34,1.34.34h1.96c.63,0,1.1-.15,1.4-.45.3-.3.45-.8.45-1.51v-1.34l.22.06v3.53c0,1.34-.34,2.31-1.01,2.91-.67.6-1.57.9-2.69.9h-2.02c-1.72,0-2.99-.42-3.81-1.26-.82-.84-1.23-2.08-1.23-3.72v-9.3ZM708.55,195.51v-3.08h5.04v3.75c0,1.6-.42,2.83-1.26,3.67-.84.84-2.16,1.26-3.95,1.26h-9.41v-3.98h7.9c.67,0,1.12-.11,1.34-.34.22-.22.34-.65.34-1.29ZM713.59,193.1h-5.04v-27.05h5.04v27.05Z"/>
    <path d="M723.34,171.65v16.13c0,.63.11,1.06.34,1.29s.67.34,1.34.34h1.4v3.98h-2.8c-1.79,0-3.11-.42-3.95-1.26s-1.26-2.06-1.26-3.67v-17.42c0-1.64.42-2.88,1.26-3.72.84-.84,2.16-1.26,3.95-1.26h3.08v3.98h-1.68c-.67,0-1.12.1-1.34.31-.22.21-.34.64-.34,1.32ZM734.37,177.59v3.7h-14.17v-3.7h14.17ZM729.38,180.55v-8.9c0-.67-.1-1.11-.31-1.32-.21-.21-.64-.31-1.32-.31h-1.79v-3.98h3.14c1.83,0,3.16.42,4,1.26.84.84,1.26,2.08,1.26,3.72v9.52h-4.98ZM729.27,187.72v-2.24h4.93v2.97c0,1.61-.41,2.83-1.23,3.67-.82.84-2.15,1.26-3.98,1.26h-3.02v-3.98h1.62c.71,0,1.17-.11,1.37-.34.2-.22.31-.67.31-1.34Z"/>
    <path d="M747.81,187.89v-4.54c0-.67-.1-1.11-.31-1.32-.21-.21-.66-.31-1.37-.31h-2.86c-1.83,0-3.16-.42-3.98-1.26-.82-.84-1.23-2.06-1.23-3.67v-5.77c0-1.64.42-2.88,1.26-3.72s2.16-1.26,3.95-1.26h4.09c1.83,0,3.16.42,4,1.26.84.84,1.26,2.08,1.26,3.72v2.63h-4.93v-2.13c0-.67-.1-1.11-.31-1.32-.21-.2-.66-.31-1.37-.31h-1.34c-.67,0-1.12.1-1.34.31-.22.21-.34.64-.34,1.32v4.7c0,.67.11,1.11.34,1.32.22.21.67.31,1.34.31h2.91c1.79,0,3.1.42,3.92,1.26.82.84,1.23,2.08,1.23,3.72v5.6c0,1.61-.42,2.83-1.26,3.67s-2.16,1.26-3.95,1.26h-4.14c-1.79,0-3.11-.42-3.95-1.26s-1.26-2.06-1.26-3.67v-2.69h4.98v2.13c0,.64.11,1.06.34,1.29.22.22.65.34,1.29.34h1.34c.71,0,1.17-.11,1.37-.34.2-.22.31-.65.31-1.29Z"/>
    <path d="M803.02,158.32v29.34c0,.63.11,1.06.34,1.29.22.22.67.34,1.34.34h1.74v4.09h-3.25c-1.83,0-3.16-.42-4-1.26s-1.26-2.06-1.26-3.67v-30.13h5.1ZM809.57,187.67v-29.34h5.1v30.13c0,1.61-.42,2.83-1.26,3.67-.84.84-2.17,1.26-4,1.26h-3.7v-4.09h2.24c.67,0,1.11-.11,1.32-.34.21-.22.31-.65.31-1.29Z"/>
    <path d="M834.49,158.32v4.09h-16.8v-4.09h16.8ZM823.57,159h5.04v34.38h-5.04v-34.38Z"/>
    <path d="M849.67,158.32h5.21l-6.33,35.06h-7.17l-6.33-35.06h5.21l4.7,30.41,4.7-30.41Z"/>
    <path d="M884.16,193.38h-5.1l-5.26-30.69-4.76,30.69h-5.1l6.22-35.06h7.34l6.66,35.06ZM879.74,181.17v4.09h-11.48v-4.09h11.48Z"/>
    <path d="M892,171.76v15.9c0,.63.11,1.06.34,1.29.22.22.67.34,1.34.34h1.29v4.09h-2.8c-1.79,0-3.11-.42-3.95-1.26s-1.26-2.06-1.26-3.67v-17.42c0-1.64.42-2.88,1.26-3.72.84-.84,2.16-1.26,3.95-1.26h3.08v4.09h-1.57c-.67,0-1.12.1-1.34.31s-.34.64-.34,1.32ZM897.77,174.68v-2.91c0-.67-.11-1.11-.34-1.32-.22-.21-.67-.31-1.34-.31h-1.62v-4.09h3.02c1.83,0,3.16.42,4,1.26.84.84,1.26,2.08,1.26,3.72v3.64h-4.98ZM897.77,187.67v-2.91h4.98v3.7c0,1.61-.42,2.83-1.26,3.67s-2.18,1.26-4,1.26h-3.02v-4.09h1.62c.67,0,1.12-.11,1.34-.34s.34-.65.34-1.29Z"/>
    <path d="M911.71,171.76v15.9c0,.63.11,1.06.34,1.29.22.22.67.34,1.34.34h1.29v4.09h-2.8c-1.79,0-3.11-.42-3.95-1.26s-1.26-2.06-1.26-3.67v-17.42c0-1.64.42-2.88,1.26-3.72.84-.84,2.16-1.26,3.95-1.26h3.08v4.09h-1.57c-.67,0-1.12.1-1.34.31s-.34.64-.34,1.32ZM917.48,174.68v-2.91c0-.67-.11-1.11-.34-1.32-.22-.21-.67-.31-1.34-.31h-1.62v-4.09h3.02c1.83,0,3.16.42,4,1.26.84.84,1.26,2.08,1.26,3.72v3.64h-4.98ZM917.48,187.67v-2.91h4.98v3.7c0,1.61-.42,2.83-1.26,3.67s-2.18,1.26-4,1.26h-3.02v-4.09h1.62c.67,0,1.12-.11,1.34-.34s.34-.65.34-1.29Z"/>
    <path d="M931.54,171.65v16.13c0,.63.11,1.06.34,1.29s.67.34,1.34.34h1.4v3.98h-2.8c-1.79,0-3.11-.42-3.95-1.26s-1.26-2.06-1.26-3.67v-17.42c0-1.64.42-2.88,1.26-3.72.84-.84,2.16-1.26,3.95-1.26h3.08v3.98h-1.68c-.67,0-1.12.1-1.34.31-.22.21-.34.64-.34,1.32ZM942.57,177.59v3.7h-14.17v-3.7h14.17ZM937.58,180.55v-8.9c0-.67-.1-1.11-.31-1.32-.21-.21-.64-.31-1.32-.31h-1.79v-3.98h3.14c1.83,0,3.16.42,4,1.26.84.84,1.26,2.08,1.26,3.72v9.52h-4.98ZM937.47,187.72v-2.24h4.93v2.97c0,1.61-.41,2.83-1.23,3.67-.82.84-2.15,1.26-3.98,1.26h-3.02v-3.98h1.62c.71,0,1.17-.11,1.37-.34.2-.22.31-.67.31-1.34Z"/>
    <path d="M956.01,187.89v-4.54c0-.67-.1-1.11-.31-1.32-.21-.21-.66-.31-1.37-.31h-2.86c-1.83,0-3.16-.42-3.98-1.26-.82-.84-1.23-2.06-1.23-3.67v-5.77c0-1.64.42-2.88,1.26-3.72s2.16-1.26,3.95-1.26h4.09c1.83,0,3.16.42,4,1.26.84.84,1.26,2.08,1.26,3.72v2.63h-4.93v-2.13c0-.67-.1-1.11-.31-1.32-.21-.2-.66-.31-1.37-.31h-1.34c-.67,0-1.12.1-1.34.31-.22.21-.34.64-.34,1.32v4.7c0,.67.11,1.11.34,1.32.22.21.67.31,1.34.31h2.91c1.79,0,3.1.42,3.92,1.26.82.84,1.23,2.08,1.23,3.72v5.6c0,1.61-.42,2.83-1.26,3.67s-2.16,1.26-3.95,1.26h-4.14c-1.79,0-3.11-.42-3.95-1.26s-1.26-2.06-1.26-3.67v-2.69h4.98v2.13c0,.64.11,1.06.34,1.29.22.22.65.34,1.29.34h1.34c.71,0,1.17-.11,1.37-.34.2-.22.31-.65.31-1.29Z"/>
    <path d="M974.37,187.89v-4.54c0-.67-.1-1.11-.31-1.32-.21-.21-.66-.31-1.37-.31h-2.86c-1.83,0-3.16-.42-3.98-1.26-.82-.84-1.23-2.06-1.23-3.67v-5.77c0-1.64.42-2.88,1.26-3.72s2.16-1.26,3.95-1.26h4.09c1.83,0,3.16.42,4,1.26.84.84,1.26,2.08,1.26,3.72v2.63h-4.93v-2.13c0-.67-.1-1.11-.31-1.32-.21-.2-.66-.31-1.37-.31h-1.34c-.67,0-1.12.1-1.34.31-.22.21-.34.64-.34,1.32v4.7c0,.67.11,1.11.34,1.32.22.21.67.31,1.34.31h2.91c1.79,0,3.1.42,3.92,1.26.82.84,1.23,2.08,1.23,3.72v5.6c0,1.61-.42,2.83-1.26,3.67s-2.16,1.26-3.95,1.26h-4.14c-1.79,0-3.11-.42-3.95-1.26s-1.26-2.06-1.26-3.67v-2.69h4.98v2.13c0,.64.11,1.06.34,1.29.22.22.65.34,1.29.34h1.34c.71,0,1.17-.11,1.37-.34.2-.22.31-.65.31-1.29Z"/>
    <path d="M988.32,171.71v12.77h-4.98v-13.44c0-1.64.41-2.88,1.23-3.72.82-.84,2.13-1.26,3.92-1.26h3.19v3.98h-1.68c-.67,0-1.12.1-1.34.31-.22.21-.34.66-.34,1.37ZM988.32,181.73v5.99c0,.67.11,1.12.34,1.34.22.22.67.34,1.34.34h1.51v3.98h-3.02c-1.79,0-3.1-.42-3.92-1.26-.82-.84-1.23-2.06-1.23-3.67v-6.72h4.98ZM994.7,187.72v-5.66h4.98v6.38c0,1.61-.41,2.83-1.23,3.67s-2.15,1.26-3.98,1.26h-3.42v-3.98h1.96c.71,0,1.17-.11,1.37-.34.21-.22.31-.67.31-1.34ZM994.7,184.42v-12.71c0-.71-.1-1.17-.31-1.37-.21-.21-.66-.31-1.37-.31h-1.68v-3.98h3.14c1.83,0,3.15.42,3.98,1.26.82.84,1.23,2.08,1.23,3.72v13.38h-4.98Z"/>
    <path d="M1009.37,193.38h-5.04v-27.33h5.04v27.33ZM1014.92,166v4.42h-2.02c-2.35,0-3.53,1.36-3.53,4.09v1.18h-.22v-4.76c0-.78.18-1.56.53-2.32.35-.76.88-1.39,1.57-1.88.69-.48,1.54-.73,2.55-.73h1.12Z"/>
    <path d="M1017.55,160.84v-4.98h5.26v4.98h-5.26ZM1022.7,193.38h-5.04v-27.33h5.04v27.33Z"/>
    <path d="M1032.44,171.65v16.13c0,.63.11,1.06.34,1.29s.67.34,1.34.34h1.4v3.98h-2.8c-1.79,0-3.11-.42-3.95-1.26s-1.26-2.06-1.26-3.67v-17.42c0-1.64.42-2.88,1.26-3.72.84-.84,2.16-1.26,3.95-1.26h3.08v3.98h-1.68c-.67,0-1.12.1-1.34.31-.22.21-.34.64-.34,1.32ZM1043.48,177.59v3.7h-14.17v-3.7h14.17ZM1038.49,180.55v-8.9c0-.67-.1-1.11-.31-1.32-.21-.21-.64-.31-1.32-.31h-1.79v-3.98h3.14c1.83,0,3.16.42,4,1.26.84.84,1.26,2.08,1.26,3.72v9.52h-4.98ZM1038.38,187.72v-2.24h4.93v2.97c0,1.61-.41,2.83-1.23,3.67-.82.84-2.15,1.26-3.98,1.26h-3.02v-3.98h1.62c.71,0,1.17-.11,1.37-.34.2-.22.31-.67.31-1.34Z"/>
    <path d="M1056.92,187.89v-4.54c0-.67-.1-1.11-.31-1.32-.21-.21-.66-.31-1.37-.31h-2.86c-1.83,0-3.16-.42-3.98-1.26-.82-.84-1.23-2.06-1.23-3.67v-5.77c0-1.64.42-2.88,1.26-3.72s2.16-1.26,3.95-1.26h4.09c1.83,0,3.16.42,4,1.26.84.84,1.26,2.08,1.26,3.72v2.63h-4.93v-2.13c0-.67-.1-1.11-.31-1.32-.21-.2-.66-.31-1.37-.31h-1.34c-.67,0-1.12.1-1.34.31-.22.21-.34.64-.34,1.32v4.7c0,.67.11,1.11.34,1.32.22.21.67.31,1.34.31h2.91c1.79,0,3.1.42,3.92,1.26.82.84,1.23,2.08,1.23,3.72v5.6c0,1.61-.42,2.83-1.26,3.67s-2.16,1.26-3.95,1.26h-4.14c-1.79,0-3.11-.42-3.95-1.26s-1.26-2.06-1.26-3.67v-2.69h4.98v2.13c0,.64.11,1.06.34,1.29.22.22.65.34,1.29.34h1.34c.71,0,1.17-.11,1.37-.34.2-.22.31-.65.31-1.29Z"/>
  </g>
  <g>
    <polygon class="cls-1" points="90.54 99.24 79.31 118.68 90.54 138.12 99.13 153 110.35 172.44 112.37 175.94 123.6 195.38 146.04 195.38 134.82 175.94 121.57 153 145.78 111.07 134.56 91.63 110.35 133.56 101.76 118.68 125.97 76.75 137.19 57.31 125.97 37.87 114.74 57.31 90.54 99.24"/>
    <polygon points="106.23 175.94 96.06 158.31 87.47 143.44 76.24 124 73.25 118.81 76.32 113.49 87.54 94.06 111.75 52.13 122.97 32.69 111.75 13.25 76.32 74.62 65.1 94.06 62.03 99.37 50.8 118.81 6.6 195.38 29.04 195.38 40.27 175.94 62.03 138.25 65.02 143.44 76.24 162.87 83.79 175.94 84.83 177.75 95.01 195.38 97.1 195.38 117.46 195.38 107.28 177.75 106.23 175.94"/>
  </g>
  <g>
    <polygon class="cls-2" points="918.43 102.25 950.82 102.25 934.63 65.13 918.43 102.25"/>
    <path class="cls-2" d="M768.82,76.1c0-6.98-4.61-13.95-14.95-13.95h-25.04v27.9h25.04c10.46,0,14.95-6.98,14.95-13.95Z"/>
    <path class="cls-2" d="M1043.37,72.48c0-3.99-3.24-10.71-13.7-10.71h-25.16v20.06h25.16c10.34,0,13.7-4.36,13.7-9.34Z"/>
    <path class="cls-2" d="M591.43,62.39h-24.66v30.89h24.66c21.05,0,20.93-30.89,0-30.89Z"/>
    <path class="cls-2" d="M1029.67,96.27h-25.16v22.42h25.16c6.73,0,16.32-2.24,16.32-10.46s-9.59-11.96-16.32-11.96Z"/>
    <path d="M176.99,61.77h27.65v72.25h16.44V61.77h27.65v-14.95h-71.75v14.95Z"/>
    <polygon points="318.12 83.69 275.27 83.69 275.27 46.95 258.83 46.95 258.83 134.14 275.27 134.14 275.27 98.89 318.12 98.89 318.12 134.14 334.44 134.14 334.44 46.95 318.12 46.95 318.12 83.69"/>
    <path d="M410.05,96.9c0,14.95-7.72,24.04-21.3,24.04s-22.55-8.35-22.55-24.04v-49.95h-16.32v49.95c0,26.28,17.81,38.99,38.74,38.99s37.74-13.2,37.74-38.99v-49.95h-16.32v49.95Z"/>
    <polygon points="488.78 84.44 461.51 46.95 442.57 46.95 442.57 134.14 459.01 134.14 459.01 70.74 486.79 108.73 490.03 108.73 518.43 70.86 518.43 134.14 534.87 134.14 534.87 46.95 516.06 46.95 488.78 84.44"/>
    <path d="M591.43,46.7c-13.7,0-27.4.13-41.11.13v87.19h16.44v-25.66h24.66c42.73,0,42.6-61.66,0-61.66ZM591.43,93.29h-24.66v-30.89h24.66c20.93,0,21.05,30.89,0,30.89Z"/>
    <path d="M634.29,134.02h65.27v-16.19h-48.95v-19.68h47.21v-15.32h-47.21v-20.06h48.95v-15.94h-65.27v87.19Z"/>
    <path d="M785.26,75.72c0-15.07-10.84-28.77-31.39-28.9-13.83,0-27.65-.13-41.48-.13v87.32h16.44v-29.15h15.82l25.41,29.15h19.56v-1.12l-26.41-29.77c16.57-3.36,22.05-15.45,22.05-27.4ZM728.84,90.05v-27.9h25.04c10.34,0,14.95,6.98,14.95,13.95s-4.48,13.95-14.95,13.95h-25.04Z"/>
    <polygon class="cls-1" points="821.52 134.02 837.96 134.02 837.96 101.76 881.68 101.76 881.68 86.56 837.96 86.56 837.96 62.77 884.17 62.77 884.17 46.95 821.52 46.95 821.52 134.02"/>
    <path class="cls-1" d="M925.66,46.82l-39.11,87.19h17.81l7.47-16.44h45.59l7.35,16.44h17.94l-39.11-87.19h-17.94ZM918.43,102.25l16.19-37.12,16.19,37.12h-32.39Z"/>
    <path class="cls-1" d="M1048.36,88.93c8.1-3.61,11.33-10.09,11.33-16.82,0-17.56-12.83-25.29-30.02-25.29h-41.36v87.19h41.36c18.06,0,32.63-6.23,32.63-25.66,0-5.48-3.74-16.32-13.95-19.43ZM1004.51,61.77h25.16c10.46,0,13.7,6.73,13.7,10.71,0,4.98-3.36,9.34-13.7,9.34h-25.16v-20.06ZM1029.67,118.7h-25.16v-22.42h25.16c6.73,0,16.32,4.11,16.32,11.96s-9.59,10.46-16.32,10.46Z"/>
  </g>
  <g>
    <path class="cls-1" d="M562.18,184.73l-7.62-7.62,7.62-7.62,7.62,7.62-7.62,7.62Z"/>
    <path class="cls-1" d="M774.18,184.73l-7.62-7.62,7.62-7.62,7.62,7.62-7.62,7.62Z"/>
  </g>
</svg>